<svg xmlns="http://www.w3.org/2000/svg" xml:space="preserve" viewBox="0 0 377.5 464.2">
  <path fill="#FFF" d="M376.7 421.3v33.6l-2.9-8.7c-2.2-.7-4.2-1.4-6.2-1.8-1.6-.3-3.3-.2-4.9-.3l.7 2.5.5 2.4-13.3-1.1s-.3 1.1-.2 1.6c.2.7.7 1.3 1.1 1.9l-2.2-.5-1.6-.2c0 .4-.2 1 0 1.1l9 6.3 9.5 6.1h-13l-.6-1.3-1.6 1.3h-44.9l-1.1-1.3c-2.6-3.7-5.8-7.2-7.7-11.3-.9-2.1.6-5.2 1.1-8.5l-1.6 2.1-1-2.8c-2-6.9-4.4-13.7-5.7-20.8-1.1-6-.9-12.2-1.2-18.3l1.8.5 1.6-3.1-.7.1.3-5.1c.2-2.3.2-4.6.6-6.8 1.2-5.6 3.1-11.1 3.7-16.7.4-3.2-1.2-6.6-2-9.8-.1-.3-.9-.7-1.3-.7l-9.9 1.7c-4.5-5.5-4.5-5.5-2.1-6.8l1.8-11.2c.8-4.9 2-9.9-4.7-11.4l1.8-4.4 1.4 3.1c.7-4.5-.5-9.2.5-13.4.6-2.4 4.6-4.1 8-6.8 0 0-.4-1.7-.6-3.5 0-.3 1.2-.5 1.5-1 .2-.3-.1-1.1-.4-1.4-4.5-4.2-3.2-8.9-1.8-14 .9-3.5.6-7.3.9-10.6l-5.6 6.5-.1.5c-.1 2.6.5 5.4-.3 7.9-3.1 10.4-6 20.8-10.1 30.8-3.3 8.2-7.8 15.1-5.4 25.1 2.4 9.7 1.6 20.2 2 30.3.1 1.5-.6 3-1 4.5-2-1.2-5.3-2-5.7-3.6-5.3-21-8.2-42.2-3.6-63.8.8-3.7-.2-8.2 6.1-6.7.2 0 1.1-2.5 1.5-3.9.2-.5-.4-1.2-.2-1.7l3.9-9.6 10.8-23.7c.7-1.6 1.9-2.9 2.9-4.4l-2.1-.8c-4.4 4.1-8.3 7.3-11.6 11.1-1.9 2.2-2.8 5.3-4.1 8-1.1 2.4-1.4 5.6-3.2 7.3-6.9 6.8-14.3 13.1-21.6 19.5a47.2 47.2 0 0 1-8.1 6c-1.4.8-3.3.8-5.3 1.2l4.8 2.2c-2.8 2.7-5.3 5.8-8.5 7.8-1.2.7-4-1.5-6.2-2.2-.7-.2-1.6 0-2.3.2-1.8.4-3.8.6-5.4 1.5-1.6.8-2.8 2.5-4.4 3.4-.9.5-2.3.3-5.1.5l-13.6 11.2c.3-.8.7-1.5.8-2.3v-5.3c0-.1-1.4-.2-2 0-1.2.3-2.4.7-3.4 1.4-1.1.7-2.8 1.7-2.8 2.6 0 2.2.7 4.4 1.2 6.6l4.4-1.7c.6-.2 1.1-.6 1.6-.9.2.6.6 1.1.6 1.7-.2 5.5-.3 11.1-.9 16.6-.3 2.9-1.2 5.7-2.1 8.5-.3.8-2.2 1.6-2.1 1.8 1.1 2.5 2.1 5.2 3.9 7.2 2.2 2.4 6.6 3.8 7.3 6.4.6 2.2-2.5 7.7-4.3 7.9-6.7.6-4.4 4.6-3.9 8 .2 1.3 1.7 2.7 1.5 3.9-1.3 7.3-11.6 11.2-16.3 5.7a68.6 68.6 0 0 1-15.1-31.1c-3.2-11.4-8-22.4-14.3-32.4-5.6-10-12.9-19-19.7-28.3-1.9-2.6-4.9-4.3-7.4-6.4.2 1.2.6 2.3.6 3.5.5 8.3.9 16.5 1.2 24.8.6 13.8 1.3 27.7 1.4 41.5 0 4-2.6 7.9-2.9 11.9-.4 5.5 2 11.8.1 16.6-4.1 10.5-9.9 20.4-15.5 30.3-1.4 2.4-4.5 3.9-6.9 5.7l-1.8 1.2-3.1 2.3c.1-.6.3-1.3.2-1.9 0-.4-.3-.9-.6-1s-.8.2-1 .4c-.2.3 0 .7.1 1.1 0 .5.3 1.2.1 1.3-.6.4-1.4.6-2.1.8l-.5-.3-.4-1.6-5.3 3.8c-1.4 1.1-2.6 2.6-4.2 3.3-2.8 1.3-5.9 2.2-8.8 3.3h-3.9l-2.9-5.7-2.8-6.9 7.9-2.1c0 .1.2-.6.6-1 1.7-1.5 3.9-2.7 5.2-4.5 3.3-4.7 5.8-9.9 9.4-14.3 3.8-4.7 8.7-8.6 12.9-13 .7-.7.5-2.3.7-3.5h-1.1c-1.7.2-3.4.6-5.1.5-4.4-.4-9.6-2.1-6.4 5.8.2.4-.5 1.4-1.1 1.7l-17.3 10.1c-.5.3-.7 1-1.1 1.5.7.1 1.3.3 2 .3 1.4-.1 2.9-.7 4.1-.4.6.2 1.2 3 1 3.2-2.7 1.6-5.4 3.7-8.4 4.2-1.8.3-4-2.2-6.1-3.3-.9-.5-2.1-1.1-2.9-.9a94.1 94.1 0 0 0-10.5 3.9c-2.6 1.2-7.3 2.8-7.2 4.2.1 6.8 1.4 13.5 2.3 20.3H.9c-.3 0-.9-.6-.9-.9v-20.8c15.7-.4 30.6-4.3 44.6-11.2 6.5-3.2 12.9-7 18.9-11.1 3.9-2.7 8.2-5.5 2.7-11.6-3.4-3.7-11.2-5.8-7.6-13.8 1.9-4.2 3.1-8.7 4.6-13l1.7-5.9-1.3-.4-8.4-1c-.5-.1-1-.8-1.4-1.2.6-.3 1.3-1.1 1.8-.9 7.5 2 10-4.1 13.9-8.2.2-.2.3-.7.2-1-.9-7-1.3-14.2-3.1-21-.5-1.8-5-2.6-7.7-3.8l-1.2 3.8c-.7 2.3-1.1 6.2-2.3 6.4-3 .7-7 .5-6.4-4.7 0-.2-.8-.4-1-.7-2.4-3.9-6.2-7.6-6.8-11.7-.9-6.4-1.1-12.4-6.4-17.2-1.3-1.2-1-4.9-.4-7.2.5-1.9 3.3-3.3 3.4-5.1.4-5.4 1.6-11.6-.3-16.3-2.6-6.3-7.8-11.4-11.9-17-.6-.7-1.7-1.1-2.6-1.5-2.6-1-7.5-2-7.5-2.9.1-4.8 1.1-9.7 2.5-14.4 1.1-3.7 4.7-7.3-1.7-9.6-.5-.2-1-2.4-.8-2.6 4.5-3.1 4.6-7.3 4.3-12.4-.3-6.9 1.2-13.8 1.5-20.7.4-8.3.2-16.6.6-24.9.3-5.1 2-10.3 1.5-15.3-.4-3.3-5.7-6.5 1.5-8.3.2 0 .2-.6.3-1 .3-3.9.3-7.9.9-11.7.5-3.3 2-6.4 2.6-9.6.4-2-.7-5.4.3-6.1 1.8-1.2 4.7-.9 7.1-1.2.6-.1 1.3 0 1.9.3l4.7 2.3-2-5.9-.5-2c.7 0 1.4-.1 2 .2l7.4 3 2.8-23.5-11.9 17.7a4 4 0 0 1-1.3 1.3c-.2.1-.9-.3-.9-.4 0-.6.1-1.2.4-1.7l4.7-7 10-15c.2-.4.1-1 .2-1.5l-1.3.5-6.6 1.3 2.6-4.8c2.6-4.3 5.5-8.3 7.7-12.7 1.3-2.4 1-5.6 2.4-8 1.4-2.5 4.6-4 5.8-6.5 4.4-8.8 8.1-17.9 12.5-26.7.6-1.3 3.7-1.4 5.6-2 .5 2 1.6 4.1 1.3 5.9-.3 1.8-1.6 4.1-3.1 4.9-1.2.6-3.4-.7-5.1-1.2.1 1.3-1.8 5.4-3.3 9.6-.8 2.1-.9 4.5-1.3 6.7 2.4-1.4 5-2.5 7-4.4 3.4-3.1 6.1-6.9 9.6-9.9 1.7-1.5 4.2-2.3 6.5-3 2.8-.8 5.7-1.3 8.6-1.7 1-.2 2.6.5 3 0 .9-1.2 1.3-4.1 1.8-4.1 4.1.4 8.7.2 12 2.1 5.4 3.1 10.8 3.5 11.4-.8.4.2.9.4 1.2.7l5.3 5.5c.4.4 1.1.7 1.5.5.9-.3 1.7-.9 2.5-1.4 2.6 1.2 3.3.9 4 .9.2 0 .6.6.6 1v1.7c.8-.2 1.9-.1 2.3-.6l4.9-6.8-3.8-5.4-12.2 4.1c-.7.4-1.1 1.3-1.6 1.9l-1.6-2c-1.2-1.2-3.7-2.6-3.5-3.3 1.4-5.1 3.4-10.1 5.5-16.1-3.1 1.1-4.5 2.1-5.8 2-3.7-.3-7.3-1-11-1.6-1.3-.2-2.7-.4-3.8-1-.4-.2-.7-1.8-.4-2.1 1.2-1.2 2.5-2.6 4.1-3 3.8-1 7.9-1.2 11.6-2.5 3.5-1.2 6.5-4.6 10.1-5.1 8.7-1.3 17.6-1.3 26.4-2.3 11.3-1.3 22.6-3.1 33.8-4.5 1-.1 2.1.7 3.2 1.1l-1.5 1-1.5.6c.5.4 1 1.1 1.6 1.3 8.9 3.1 17.9 6 26.8 9.2 3.6 1.3 7.3 2.6 10.4 4.8 1.9 1.3 2.6 4.3 4.2 6.2 1.1 1.4 3 2.1 4.3 3.3 7 6.8 13.6 14.1 21 20.3 2.6 2.2 7.9 1.1 10.9 3.1 7 4.6 13.4 10.1 19.9 15.5 1.3 1.1 1.8 3.3 2.6 5-1.6.3-3.2.5-4.8 1-.7.2-1.5.7-1.7 1.3-1.1 2.5-2 5.1-3 7.7l-1.1 3.5c3.1 1.4 6.3 2.5 9.1 3.5l1.1-1.8s.9.4 1.2.7l6 6.4 3.7 3.7-3.4-.9-1.4 4.3-1.7-1.3-4.9-5.5c-.3 1.7-.3 2.5-.6 3.1 0 .1-.9.1-1.1-.1-.4-.3-.6-.8-.8-1.3-1.2-2-1.9-4.8-3.6-5.7-1.7-.9-4.4.2-6.7.2-1.4 0-2.8-.7-4.1-.7-5.5.3-4.5 4.7-3.7 7.5s3.4 5.2 4.8 7l2.4-4.7c3.3 2.2 8.3 3.7 9.6 6.8 3.5 8.2 5.5 17 8.2 25.5.3 1.1 1.4 1.9 2.1 2.9.2-1.2.6-2.5.6-3.7v-12.1l4.5 5.8c0-1.6-.2-2.8.1-4 .2-.9.8-1.6 1.2-2.5l1.7 2c2.6 3.7-.3 11.2 7.9 11 .7 0 1.5 2.3 2.3 3.5-.2-1.3-.6-2.6-.6-3.9-.2-3.8 0-7.7-.4-11.5-.5-4.5-1.5-8.9-2.3-13.3 2.9 4.2 3.9 8.9 4.8 13.5l1.4 6.9c.3-2.3 1.1-4.6 1-6.9-.2-4.4-.8-8.8-1.4-15.2 1 2.7 1.4 3.6 1.6 4.5l7.2 46c1.6 10.8 5.8 21.8-1 32.4l-1.1 1.5c-.4-.5-.8-1.1-1.3-1.5l-2.3-2c-.4 1-1.5 2.1-1.2 2.8.5 1.3 1.7 2.4 2.7 3.5 1 1 2.4 1.7 3.2 2.8 1.7 2.3 3.1 4.9 4.7 7.3.3.4.9.6 1.4.9-.3.5-.6 1.3-1 1.5l-9 3.8.9 6.8h5.4c.8-.1 1.6-.2 2.3-.5l13.4-4.1c.4-.1 1 .2 1.5.4-.3.4-.6 1-1 1.1-2.6 1-5.5 1.4-7.7 2.9a8.9 8.9 0 0 0-3.7 5.2c-.4 2.3.7 4.9 1 6.4l3.2-6.9.1.1 1.4 5.2 2.5-4.4c.3 2.6.4 5.8 1.2 8.7.9 3.7 1.3 6.7-3.7 7.2-.4 0-1.1 1.7-.8 2.1l11.8 17.7 1.1 2.1s-.4.4-.5.3c-1.8-1.1-3.7-2.1-5.5-3.3l-3.7-2.9c-.8 3.7-2 7.3-2.2 11-.1 3 .9 6.1 1.6 9.1 1.4 6.4 1.8 13.4 4.7 19 4.1 7.8 10.4 14.4 15.5 21.7.7 1 .5 2.7.8 4-1.5-1-3.5-1.8-4.5-3.2-4.1-5.8-8-11.9-11.9-17.9l-2.8 1.1c1 7 .1 15 3.3 20.9 5.2 9.4 13 17.4 19.7 26v13.2L366 345.9c-.4-.5-1.1-.7-1.6-1.1-.1.6-.4 1.4-.1 1.8l12.2 19.3V415l-11-1.7-4.2-.4-.2 2.1-.3 3.4c-.9-1-2.3-1.8-2.7-2.9-.3-1 .4-2.3.8-4l-6.1-3.1-.6 1.2 2.9 2.4c-2.2-.6-3.1-.7-3.9-1.1-.3-.2-.1-1.1-.3-1.6-.7-1.8-1-4.5-2.3-5.1-3.4-1.6-7.2-2.4-10.9-3.3-.9-.2-1.9.1-2.8.1.4.7.7 1.6 1.4 2 1.8 1.2 3.9 1.9 5.5 3.2 1.2.9 1.6 2.9 2.8 3.5 2.7 1.2 6.1 1.3 8.3 3 1.5 1.1 1.3 4.4 2.4 8.4l4.4.7c.8-.8 1.4-.1 2-.1 1.6 0 3.3-.5 4.9-.6 1.7-.1 3.3.1 5 .2.4 0 .9-.1 1.3.1l.5 3.4c1.5-.8 2.4-2.2 3.3-3.5zM256.6 56.6c-.7-.6-1.4-1.1-.2-.1l.2.1 5.1 3.7 2.5 3.3.8-.9-3.3-2.4-5.1-3.7zm.3 77c-.8-.3-1.6-.5-.2-.1-1.5-.1-.6 0 .2.1.7.7 1.2 1.9 2.1 2.2 1.8.6 3.7.8 5.6.8 1.5 0 3-.5 4.6-.8l-.9-1.5c-3.5-5.6-7.6-2.1-11.4-.7zm-112.7 96.9-1.8-2.5c.7-.4 1.5-1.3 2.2-1.3 18.2.6 36.3 1.7 54.4 3.3 6.4.5 12.8 1.6 19.2 1.5 6-.1 12-1.6 18-2.2 1.5-.2 3.3.6 4.7 1.3.3.1-.1 2.9-.7 3.2-4.7 2.2-9.4 4.5-14.4 6.1-7.9 2.6-15.9 4.7-23.9 6.9-1.1.3-2.6-.8-3.9-1.2.6-1.6.7-3.8 1.8-4.7 1.5-1.2 3.8-1.2 5.7-1.8.3-.1.6-.5.9-.7l-.3-.4c-2.9-.8-5.8-1.8-8.7-2.2-3.2-.5-6.6-.3-9.8-.7-2.7-.3-5.4-.9-8.1-1.4-1.7-1.1-3.7 0-5.8.7-4.5 1.5-7-6.4-12.1-2.6-.1.1-.6-.4-1-.6l-4-2.1c0 1.1.5 1.3.9 1.6.3.2.3.7.4 1.1-4.4 1.3-8.9 2.5-13.2 4-1.3.5-2.4 1.7-3.6 2.5-1.4.9-3.1 2.4-4.4 2.3-3.4-.4-6.7-1.7-10.1-2.6-4.4-1.1-8.9-2.1-13.4-3.4-.7-.2-1-1.6-1.4-2.5-.3-.6-.4-1.4-.6-2-.4.6-1.2 1.2-1.3 1.9l-1.2 7.7.6.2-1.5 7.1c-.9-.5-2.2-.8-2.6-1.5-1.1-2.1-1.7-4.4-2.6-6.6-.4-.9-.9-1.9-1.6-2.6-.4-.3-1.3 0-2.1 0l.5 2.9 1 4.3c-1.8-1.8-3.6-3.5-5.2-5.4-.4-.4-.7-1.6-.5-1.8.9-.8 2-1.4 3.6-2.3l-1.1-1.7-6.1 7.6 3.5 2.5c.5.4.8 1.1 1.2 1.7 1.7 3 2.9 6.3 5.1 8.9 7.4 8.9 15.5 17.2 22.6 26.3 2.6 3.4 3.2 8.4 4.5 12.7.3 1 .5 2.6-.1 3.1-1.6 1.5-3.6 2.6-5.5 3.8-.4.2-1.2.1-1.4.4-.3.3-.3 1.4-.2 1.5 2.4.8 4.8 1.9 7.3 2.3 2.5.4 5.5-.6 7.6.4 2.1 1.1 3.1 4.2 5.1 5.8 1.6 1.2 4 1.3 6 1.9l18.4 5.8-.2-1.6c1.2.4 2.5.7 3.6 1.3.4.2.5 1.1.4.9 2.9 1.6 5.4 3.3 8.1 4.4 1.4.6 3.3.5 4.8 0 4-1.1 7.8-2.8 11.9-3.9 3.9-1 7.9-1.4 11.9-2.1.8-.2 1.6-.8 2.4-1 .3-.1 1.2.9 1.1 1l-2.6 3.7c-.1.2-.1.6 0 .8.3.3.7.7 1 .6l5.2-1.1-2.9-4.7 5.7.7c-.3.4.1-.3.7-.8s1.4-.8 2.1-1.1c.4-.1 1.2.2 1.4-.1.8-.9 1.2-2.2 2.1-2.8 4.8-3.1 9.5-6.8 14.7-8.9 8.8-3.7 10.4-12.2 14.5-19.1.7-1.1 1.7-2.5 2.8-2.8 1-.3 3.2 1.3 3.3 1.2 1.1-1.9 1.4-4.5 2.8-5.8 2.4-2.2 5.5-3.8 8.3-5.4 2.3-1.3 4.7-2.3 7.2-3.3 1.3-.5 3.6-.4 4-1.2 2-4 3.4-8.2 5.1-12.3l1.9 3.1 8.8-1c.3 0 .6-.5.8-.7 1.1-.9 2.1-2.5 3.4-2.7 13.7-2.9 14.2-1.5 12.1-12.4-2.1 2.1-2.5 5-4.1 6.8-1.3 1.3-4.1 1.6-6.2 1.6-1 0-2.2-1.7-3-2.9-.6-.9-.6-2.1-.9-3.1 1.1-.1 2.2-.1 3.2-.3.7-.1 2-.6 2-.9.4-5.3.9-10.6.8-15.9 0-2.1-1.5-4.3-2.4-6.4h-.3l-2.2 4c-.2.4-.7.6-.9 1l-10.5 19.1-1.1 1.9-.6-.3.5-2.6.7-1.7c0-.1-.7-.6-.8-.5l-7.3 6.6-1.7 2.1c-.6-1.4-1.6-2.7-1.6-4.1-.1-1.5.9-2.9 1.2-4.5 1.8-10.5 3.7-21 5.2-31.6 1.3-9.4 2.4-18.8 3.2-28.3.2-2.2-.7-4.5-1.5-6.6-.1-.4-2.1 0-4.2 0 1.7-.9 2.9-1.3 2.9-1.6 0-.9-.6-1.8-.9-2.8-.6.4-1.1.9-1.8 1.2-1.5.8-4.2 2.4-4.4 2.2a48.2 48.2 0 0 1-4.1-6.9c-.8-1.6-1.3-3.3-1.9-4.9l-.8-1.7c-.5-1.3-.9-2.7-1.5-4l-2.8-6.5c-.7-2.1-3.2-2.5-5.6-2.7-4.7-.5-9.5-1.5-14.2-1.3-5 .2-10 1.6-15.1 2.4-.6.1-1.4-.8-2-1.2.5-.5.8-1.4 1.4-1.6 2.5-.9 5.1-1.6 8.9-2.7l-3.6-.5c-8.1-1.5-16.3-2.7-24.4-4.6-3.9-.9-7.1-2.7-6.9 3.6 0 .4-2 1.4-2.1 1.3-2.2-2.3-4.4-4.8-6.4-7.3-.6-.8-1.2-2.1-1-3 .4-3.2 1.2-6.4 1.8-9.6.1-.7.5-1.3.8-2 .7.4 1.3 1 2.1 1.2 1.8.5 3.6 1.3 5.4 1.2 1.7 0 3.5-1.5 5-1.3 1.9.4 3.5 2.5 5.3 2.8 4.3.6 8.9 0 13.1 1 4.5 1.1 8.6 3.4 13 5.1.5.2 1.2-.1 1.8-.1-.1-.4-.3-1-.2-1.3 1.3-1.7 2.7-3.3 4.2-4.8.1-.1 1.5 1.1 2.5 1.8l-1.7 2.6 5.9-2.4-3.1-.8c2.4-.6 4.7-.2 7 0l4.9.1c-.5-.9-.9-2.1-1.7-2.8-3.6-3.1-7.1-6.4-11-9a66.3 66.3 0 0 0-15-8.2c-2.8-1-6.7 1.2-10.1 1.6a1437 1437 0 0 1-29.1 3.2c-.6.1-1.6-.9-2-1.6-.3-.6-.2-2 .3-2.3 4.5-2.5 9-5.5 13.8-6.9 3.9-1.1 8.3-.2 12.5-.1 7.2.3 14.6-5.7 21.5 1.7 3.9 4.2 8.7 7.7 13.3 11.2 2.1 1.5 4.8 2.2 7.3 3.3-.6-1.9-.8-5.2-1.8-5.5-9.6-2.8-9.1-13.1-14.5-19-4-4.5-5.3-11.4-9.3-15.9-6-7-13.1-13-20-19.2-1.7-1.5-5.1-3.9-5.9-3.3-6.1 4.1-11.3 9.8-17.7 13.3-14.2 7.7-28.6 15-43.2 21.8-3.9 1.9-8.6 2.3-12.9 3.5-.6.2-1 1.3-1.4 2l1.8 1.1c3 1.9 6.4 3.4 9 5.8 4.6 4.3 8.7 9.2 12.8 13.9.9 1 1.9 2.4 1.8 3.5-.1 1.8-1.7 3.6-1.6 5.3.2 2.7 1.3 5.3 1.9 8 .1.5-.5 1.1-.7 1.6-.4-.4-1.2-.8-1.3-1.3-1.8-10.2-5.9-18.9-15.3-24.3-1.7-1-3.5-2.3-5.3-2.5-4.7-.5-9.5-.4-14.3-.5-2 0-5.8-.3-5.9.1-1.3 6.3-2 12.6-2.8 18.1 6.1-.3 12.5-1.4 18.9-.8 4.4.4 8.6 3.1 13 4.7-.6 1.4-1.5 2.9-1.7 4.4-.5 7-5.8 3.3-9 4.1-4.4 1-9 1.5-13.5 2.3-.4.1-.7 1-1.1 1.6l-2.9-.6.5 7.3.9 1.2c-1.1.2-2.3.7-3.3.4-1.8-.5-3.5-1.8-5.2-1.9-1.1-.1-2.4 1.2-3.4 2-.7.6-1.1 1.5-1.6 2.3l-2.6-1.9c-2.2-2.1-2.4-7.7-7.9-3.7-5 3.7-10.5 6.8-15.8 10.1-2.6 1.7-7 3-7.6 5.2-1.3 5-.6 10.6-1.2 15.9-.4 3.2-1.6 6.4-2.6 9.5-.1.2-1.5-.1-2.3-.1.3 1.2.4 2.5.8 3.6s1.4 2.1 1.7 3.2l3.8 18.6c.2.8.5 1.5 1 2.1 2.5 3.8 4.9 7.7 7.6 11.3 1 1.3 2.8 2 4.4 2.7.6.3 1.6-.7 2.4-.6.5.1 1.4 1.3 1.3 1.6-.4.9-1.3 1.6-2.3 2.7l2.3-.8 2.6-2.9-4.6-3.7c-.6-.5-1-1.2-1.5-1.8.7-.3 1.4-.8 2-.7 8.4.5 14.3-4.1 20.9-8.5 4.1-2.8 10-3.9 15-3.9 3.5 0 7.1 3.2 10.6 5v1c-1.8 1.3-3.9 2.2-5.4 3.8-1.7 1.7-2.4 4.4-4.3 5.7-3 2.1-6.6 3.5-9.8 5.2-.5.3-.8.8-1.3 1.3l1.2.6c3.5.5 6.9 1.1 10.4 1.5 6.8-.2 13 .2 20 .7zM123.4 72.2l-.2 3.3 27-14.2c.3-.2.8-.4.9-.3.3.2.4.7.6 1l.9.9a181 181 0 0 0 9.1-8.4c.4-.4-.1-1.7-.1-2.6-.7.1-1.6 0-2 .4-6.7 5.9-9.7 5.2-13.1-3-.1-.3-1-.8-1.1-.7-.6.4-.9 1-1.5 1.5-1.4 1.2-2.7 3.1-4.2 3.2-2.2.2-5-1.7-6.8-1-2.7 1.1-4.9 3.7-7.2 5.7-.2.2.2 1 .3 1.6.1.8.5 1.9.1 2.2-1.1.8-2.4 1.3-3.6 2-.8.5-1.4 1.5-2.1 1.7-.9.2-1.9-.4-3.1-.8l3.1-4.6-6.5 3.3c.6 1 1 2.4 1.9 3 1.6 1.2 3.6 1.9 5.3 3 .8.7 1.5 1.9 2.3 2.8zm196.4 59.5v5.1c.4 4.8.3 9.6 1.4 14.2.7 3.1 3.2 5.8 4.8 8.6 1.8-2 4-3.8 5.3-6.1.6-1.1-.1-3.4-.9-4.8-3-5.3-6.5-10.6-10.6-17zM67.1 215.5h-1.7c-1 8.4-2 16.8-2.8 25.3-.1.7 1.9 2.1 3 2.2.9.1 2-1.2 3-1.9 0 0-.2-.7-.5-.9a20 20 0 0 0-2.2-1.9l2.7-1.9 2.4-1.3c-1-1.4-2.1-2.8-3-4.3-.5-.9-1-2-1.1-3 .2-4 .2-8.1.2-12.3zm-7.7 39.3 4.6 6.6 8.8-10.2c-2.2-1.6-5.7-5-6.4-4.6-2.7 2.1-4.6 5.3-7 8.2zM377.5 353c-4.9-8.3-8.4-14.8-12.5-21-1.4-2.1-4.2-3.3-6.3-4.9.3 2.1-.1 4.9 1.1 6.3 5.1 6.2 10.7 12 17.7 19.6zM248.4 43.4l-1.5-1.6c-4.3-3.5-8.6-7.1-13-10.5-.7-.5-2.9-.5-3.1 0-.6 1.1-.9 3.4-.4 3.8 5 3.2 10.2 6.2 15.3 9.2l1.8 1.1.9-2zm99.7 237.5-2.3-.2c-.9 3.9-1.8 7.7-2.5 11.6-.2 1 .2 2.1.4 3l1.7 5.4.7 2.5c.7-.3 1.9-.6 1.9-.9l.1-21.4zM265.2 73.2c2-.6 3-1.3 3.7-1.1 2.2.7 4.2 1.7 6.3 2.6-1.7-1.7-3.1-3.6-5-5-3.6-2.6-7.5-4.8-13.5-8.5l8.5 12zM111.6 296.6c-.6 1-1.1 1.4-1.1 1.7.1 3.5 0 7.1.5 10.6.2 1.2 1.7 2.2 2.7 3.3 1.1-2.1 4.8-3.9.9-6.8-.4-.3-.3-1.5-.1-2.2.1-.7 1.1-1.6.9-1.9-1-1.6-2.3-3-3.8-4.7zm34.2-222.9c-3.5 1.8-7.3 3.7-11 5.8-.3.2.3 2 .6 3.1 0 .1.6.3.7.2l11.2-6.5c.4-.2.6-.8.8-1.2l-2.3-1.4zm186.7 106.6 1.4 1.7-2.8-12.5-1.1-4.6-.6 5.3v.1l1.3 14.6 1.8-4.6zm-19.8-27.7c-.1 0-.1 0 0 0 .2 1.3.4 2.7.8 3.9.2.4 1.1.6 1.7.8.1-.4.4-.9.3-1.3-1.1-6.1-2.1-12.2-3.4-18.3-.1-.5-1.5-.8-2.3-1.1-.1.5-.3 1.1-.2 1.5l3.1 14.5zM54 256.7c-1.6 1.8-3.4 3-3.2 3.7.7 2.4 2.1 4.5 3.2 6.8 1.4-1.4 4-2.9 3.9-4.2-.2-2-2.2-3.7-3.9-6.3zm53.7-148.1-2.1-2.5c-1.3 3.2-2.7 6.4-3.9 9.7-.1.3.9 1 1.4 1.4l4.6-8.6zm183.8-38.9 1.1-1.3-14-11.7-1 1.2 13.9 11.8zm50.6 349c3.2 0 5.1.1 7-.1.5 0 .9-1 1.4-1.5l-6-3.2-2.4 4.8zm14.5-89.9-3.1-6.9c-.3 2.3-.7 4.6-.7 6.9 0 .8 1 1.7 1.6 2.5l2.2-2.5zM99.7 102l-1.8-1.3-8.2 12.9.7.5 9.3-12.1zm-43 138 1.5.1 1.3-19.3-.7-.1-2.1 19.3zm55.2 130.1 1.6-.1-1.2-15h-.3l-.1 15.1zM249 127.5c-2.4 4.8-2.4 4.8 3.7 4.7l-3.7-4.7zm-134.8 14.7 2.8-3.1-7.8-4.1-.6.6 5.6 6.6zm-55.7-37.7-2.6-.3-.7 7.2-.4 2.3.8.1 2.9-9.3zm31.3 24.6 1.4.8 4.9-8.1-1.8-1.1-4.5 8.4zm226.1 28.6c-1 3.4-2 5.1-1.9 6.7.1 1.3 1.6 2.5 2.5 3.7.3-.3.8-.7.8-.9l-1.4-9.5zM69.1 244.6c1-.9.6-.7.6-.5 0 .7 0 1.4.2 2 .1.3.8.2 1.2.4l2.6 1.3c.6.4 1 .9 1.4 1.4.5-1 1.1-2 1.5-3.1.1-.2-.5-1-.8-1l-6.7-.5zm40.4 159.3-1.7-3.2-3.5 3a46 46 0 0 0 3.7 2.3l1.5-2.1zm184.4-141.1-6-1.8-.8 3.5 6.8-1.7zm73.2 97.4-.5.4 5.1 6.4.9-.8-5.5-6zM258.5 103.5l.5-.5c-1-1.2-2-2.6-3.1-3.7-.4-.4-1.3-.2-2-.2l4.6 4.4zm-8.9 37.8v-.3l-7.5-1.8c-.3-.1-.6.3-1 .4.2.2.3.6.5.7l8 1zM364 360.2l-2.1-1.4c-.2-.1-.9.6-.9.7l1.8 2.5 1.2-1.8zM119.9 44.9l.1-.7c-1.1-.5-2.3-1.1-3.4-1.4-.3-.1-.9.8-1.3 1.2l4.6.9zm-56.6 152-2.8 3.6c.8-.1 1.9-.1 2.6-.6.4-.1.2-1.3.2-3zm285.8 225.2 1.6-.9c-.5-.5-1.1-1.4-1.7-1.4-.5-.1-1.2.8-1.7 1.2l1.8 1.1zm5.4-53.4 1-.9-2.7-2.4c-.1.3-.5.7-.4.8l2.1 2.5zm-10.1-118.2 1.1-.1-1.1-5.9-.4.1.4 5.9zM220.9 41.8l-.8.8 2.6 2.9.6-.6-2.4-3.1zm63.6 25-.5.4 3.5 3 .5-.6c-1.2-.8-2.4-1.8-3.5-2.8zm44.1 70.9-1.5-1.4c-.2.3-.7.7-.7.9.2.6.7 1.1 1 1.6l1.2-1.1zm-49.3 131-.1-.6-3.4.8.4 1.1 3.1-1.3zM267.7 80.3l-.7.5 2.1 2.8.6-.4-2-2.9zm50.5 73.9.8-.2-1-3.3-.7.2.9 3.3zm-49.9 167.3-.7-.2-1.2 3.5.7.2c.3-1.2.7-2.3 1.2-3.5zM121.4 125.8v-.9l-3.1.3v.6h3.1zm236.4 222.9 1.8 2c.3-.4.8-.8.7-1.1 0-.4-.4-1-.8-1.1-.4-.3-.9 0-1.7.2zm-45.4 31.1.3-.2-2.7-3.8-.5.4 2.9 3.6zm7 6.3.4-.4-3.6-2.8-.3.4 3.5 2.8zM114.5 44.5l-.3-.8-2.2.9.5.6 2-.7zM74.4 234.2c-.1.5-.4 1-.3 1.4.1.4.7.9.8.9l1.2-.9c-.2-.3-.6-.5-1.7-1.4zm218.1 111.6-.9.3c.3.7.5 1.4.9 2l.6-.2-.6-2.1zm67 100.5c1.3.3 1.9.5 2.5.5.2 0 .3-.8.5-1.6l-3 1.1zM59.2 98c-.6-.3-1-.6-1.1-.5l-1 1c.2.2.5.5.7.5.5-.2.8-.5 1.4-1zm2.7-4.5-1-1.1c-.2.2-.6.5-.6.7.1.4.4.7.7 1l.9-.6zm3.5-5.3L64 86.9l-1.4 1.6.8.8 2-1.1zm82.3 140.9v-.5h-2.4v.6l2.4-.1zm163.6 33.2 1.5 1.9.7-.9-2.2-1zm-90.2 66-.5-.7-.9 1.1.4.5 1-.9zm-35.2-279-.7-.5-1.1.9c.2.2.5.5.7.5l1.1-.9zm172.4 412.9c.3-.4.7-.7.7-1 0-.2-.4-.4-.6-.7-.2.3-.5.5-.6.8 0 .3.2.5.5.9zm-94.2-346.8.3-.3-1.7-1.5-.3.4 1.7 1.4zm11.1 15.7.5.3.9-1.4-.6-.3-.8 1.4zm.2-6.2.4-.4-1.2-1.3-.4.4 1.2 1.3zm-214-24.5.6.2.2-1.2-.5-.2-.3 1.2zm192 25.2.4-.2-.5-1.3-.5.2c.1.5.4.9.6 1.3zm-12.3-67.3.4-.3-1.2-1.1-.4.4 1.2 1zm24.7 29.2.5-.3-.8-1.2-.4.2.7 1.3zm85.3 373.2.6.3.4-1.2-.5-.2-.5 1.1zm-55.7-27 .3.3.8-.7-.4-.3-.7.7zM283.2 66.3l.4-.4-1.1-1-.2.3.9 1.1zM87.8 93.1l-.7-.5c-.1.2-.3.3-.3.5l.4.3c.2.1.3-.1.6-.3zm25.9-27.2c-1.3-1.1-1-.9 0 0-.8-1.1-.9-1.4 0 0zm6.1 231-.1-.4-.9.1.2.4c.3.1.5 0 .8-.1z"></path>
  <path fill="#FFF" d="M309.9 88.1c3.3.5 8.2-.1 9.5 1.8 3.1 4.3 4.5 9.9 6.7 15l-2.2.9c-1.2-3.5-2.3-7-3.7-10.3-.5-1.1-1.9-1.9-3-2.6-.1-.1-.9.8-1.4 1.1-.3.2-.6.2-1 .2 0-.4.1-.8-.1-1-.5-.9-.9-2.1-1.7-2.6-1-.7-2.3-.9-3.5-1.3l.4-1.2zM47.8 120c-1.3-1.7-2.7-2.8-2.6-3.6.1-1 1.6-1.8 2.5-2.7.7.8 1.9 1.6 2 2.5 0 1-.9 2-1.9 3.8zm281-16.5-4.5-14.2 1-.3 4.8 14.2-1.3.3zm-20.5-16.3-7-4.5c-.1-.1 0-.8.2-.9.3-.2 1-.5 1.2-.3l6 5.3-.4.4zM83.9 34c-.9-1-1.7-1.6-1.6-1.9.3-.8 1-1.5 1.5-2.3.6.6 1.5 1.2 1.8 2 .1.4-.9 1.2-1.7 2.2z"></path>
  <path fill="#FFF" d="m318.4 98.1 1.6 2.7c.1.1-.4.5-.6.7l-1.6-2.1c-.2-.1.2-.5.6-1.3zm5.8 17.7-.9 1.2c-.4-.4-1.1-.8-1-1.1.1-.5.6-.9 1-1.4l.9 1.3zm-.3-28.9c-.4.3-.7.6-.8.5l-1.2-.9.8-.7c.4.2.7.7 1.2 1.1zm6 25.4.1 1.6-.7-.2v-1.4h.6zM129.7 39.6l-1 .7-.6-.5.8-.8c.1-.1.4.3.8.6zm19.7 3.1-.3 1-.6-.2.4-.9c.2-.1.3 0 .5.1zm199.5 176.8-.2.2c1-.6.6-.3.2-.2zm-63.1 171.6-3.4-3-5.2 4.9c-.4-2.3-1.5-4.5-.8-5.4.9-1.2 3.1-1.5 4.7-2.2l1-.3-1.6-3.6-1.4.7-1.8 1.1.2-1.6c.7-3.1 1.3-6.3 2.3-9.3.6-1.8 1.7-3.3 2.6-5 .7.6 1.8 1.1 1.9 1.8a6 6 0 0 1-.5 3.5c-.7 1.5-1.8 2.8-2.6 4.2-.2.3-.2.7-.2 1l.6.9c.9 2.6 1.7 5.3 2.8 7.8.5 1.3 1.7 2.3 2.5 3.4l-1.1 1.1zm.2 8.5-2 2.7-1.3-1.1 2.4-2.2c.1-.1.5.3.9.6zm3.1-4 1.7 2.5-1.9.7.2-3.2zm-3 10.7c-.7.5-1.1.9-1.7 1.2 0 0-.6-.6-.6-.8l.8-2.2 1.5 1.8zm-2.6-9.2c-.9.2-1.3.5-1.5.4-.5-.3-1-.8-1.5-1.3-.1-.1.3-.5.4-.7l2.6 1.6zm3.6 4.1-.4-1.7.8-.3.2 1.8c-.2.2-.4.2-.6.2z"></path>
  <path fill="#FFF" d="m282.5 393-.3-1.9.6-.1.4 2h-.7zm-6.2 1-.7-1.4.5-.2.7 1.4-.5.2zm3.5 0-1.6.4-.2-.6 1.6-.5.2.7zm-79.4-56 .8.9-.4.4-.9-.9.5-.4zM145 413.1l-.5-1 .6-.2.4 1-.5.2zm221.3 36.1h1.1v.5l-1 .1-.1-.6zm2.2 1.3-.1-1.1h.5l.1 1-.5.1zm-3.8-30.9 1.5-2.1c.2.2.7.5.6.7-.1.9-.4 1.8-.6 2.6l-1.5-1.2zm-.8-.8-1.4 2.3-.6-.3 1.3-2.4.7.4zm-8-4.6 1.1-1.6.5.4-1.1 1.6-.5-.4zm12.5 4.4 1 .8-.3.4-1-.8.3-.4zM153.2 197.1l8.9-2.8-.8 3.6 1-.8c2.4-2.3 4.8-5.7 7 .2.1.3 1.7 0 2.1.4l5.8 5.8-5.4-.2c-.5 0-1.4.2-1.4.3-.3 7.2-5.4 2.1-8.1 3.1-3.4 1.3-8-4-10.9 1.9-.3.5-3.4.6-3.8 0-1-1.6-2.1-3.9-1.7-5.5 1.7-5.9 4.1-11.6 6.2-17.4.1-.2.8-.4.8-.4.7 1.1 1.9 2.2 1.8 3.3-.3 3.7-1.2 7-1.5 8.5zM131.8 138c-.8.4 0-.4.9-.4 4.8-.1 9.7-.2 14.5 0 1.2 0 2.3 1.1 3.5 1.7-1.1 1.2-1.9 3.2-3.2 3.6-3.4 1-7 1.9-10.5 1.8-5-.1-10-1-14.9-1.9-.9-.2-1.4-2-2.2-3 .7.2 1.4.7 2 .6 2.7-.5 5.4-1.2 9.9-2.4zm58.1 5.8-.5-1.4-2.3 1.3c-.1-.5-.3-1.5-.1-1.6 2-.9 4.1-2.3 6.1-2.3 10-.1.7 3.5.9 5.2.3 2.6.4 5.2.2 7.8-.1 1-1.3 2-1.8 3l-3.4 7.5-1.3 2.8-3.8-2.3c.8-.6 1.8-1.2 2.5-1.9.4-.5.5-1.3.7-1.9.9-2.8 2.1-5.5 2.7-8.4.4-1.6-.2-3.4-.2-5.1-.1-.8.1-1.5.3-2.7zm.9-1.4.5.4.4-.4-.3-.3-.6.3zm1.7 44.7 17.8 13.5c.2.2.2 1.1.1 1.2-1.8.7-3.5 1.7-5.3 1.8-.8.1-1.6-1.7-2.5-2.5-3.3-2.6-6.5-5.2-9.9-7.5-1.5-1-3.5-1.4-5.2-2.1l5-4.4zm-.7 22.1c-4.9-1.3-8.7-2.2-12.4-3.3-.6-.2-1.4-2.1-1.3-2.2 1.4-1.2 2.9-3 4.5-3 3.3-.1 6.7.4 10 1.3 1.6.4 2.8 2.2 4.2 3.3l-5 3.9zm-37.1-27.3c2.8-4.9 5.4-9.5 7.9-14.2.3-.6.5-1.5.4-2.2-.2-1.1-.8-2.2-1.2-3.3.4.1 1.1.1 1.2.3.9 1.9 2.8 4.3 2.2 5.7-2.1 5.2-5.1 10.2-7.8 15.2-.2.4-1.2.8-1.3.7l-1.4-2.2zm60.5 19.8-4.6 1.2 2.2-3.5c3.3 1.3 6.7 2.5 9.8 4.1.9.5 1 2.4 1.4 3.7.1.3-.7 1.1-.8 1l-5.4-2.2-4.7-2.1 2.1-2.2zm-26.1-24.9-1 1.9c-.4-.6-.6-1.3-1.1-1.7s-1.3-.4-1.8-.7l-3.1-2.3c.5-.6 1.1-1.7 1.6-1.7 1.5-.1 3.2-.1 4.4.6.7.5.7 2.4 1 3.9zm86.6 1.3.8-1.6c.6.7 1.3 1.3 1.8 2.1 1.1 1.5 2.2 3.1 3.1 4.7.5.8.6 1.9.7 2.9 0 .3-.3.6-.5.9-.7-.6-1.5-1-1.9-1.8l-4-7.2zm1.3 71.8-3.6 2.9s-.7-.4-.6-.5l1.4-4.4 2.8 2zm-78.2-37.4c-1.2.6-1.7 1-1.8.9-1.1-.9-2.1-2-3.1-3 .3-.2.7-.7.9-.6l4 2.7zm-96.1 33.4 2.5 2.3c-.4.2-.9.7-1 .6l-2.1-2.2.6-.7zm174.6 16.9c-.5.3-.8.7-1.2.8-.2 0-.6-.3-.8-.5l1-1.4 1 1.1zm-104.9-50.6-.6-.9.4-.3.6.9-.4.3zM139.1 55.6c-.6.6-.9 1-1.2 1l-2.8.1 1.9-2.6c.7.4 1.3.8 2.1 1.5zm-1.8 7.8.5-1.5.6.3-.5 1.4-.6-.2zm188.9 82.3c1 1.8 2.4 3.5 3 5.4.2.7-1.3 1.9-2 2.9-.7-1.2-1.6-2.3-2-3.6-.5-1.3-.5-2.8-.8-4.2a12 12 0 0 1 1.8-.5z"></path>
</svg>
